<svg xmlns="http://www.w3.org/2000/svg" viewBox="0 0 304.84 83.29"><title>Asset 1</title><g id="Layer_2" data-name="Layer 2"><g id="Layer_1-2" data-name="Layer 1"><path d="M152.6,51.33c-29,39.26-97.21,40.26-132.8,13.37C9.86,57.19,1.48,48.39.17,35.26S4.87,12.46,15.11,5C20.78.93,32.59,1.67,38.88,8.4,25,7.83,16.26,13.2,13.11,24.17c-2.37,8.3,1.61,15.28,10.19,15.75a37.59,37.59,0,0,0,17-2.82,198.17,198.17,0,0,0,27.4-15.22c13.13-8.63,26.16-17.21,41.91-20.3,15.43-3,29.81-1,42.76,9.33,14.39-11.52,31-13.5,47.91-7.91,10.44,3.45,20.24,9.1,30,14.45,9.9,5.44,19.1,12.13,29.05,17.46,5,2.69,10.9,4.06,16.56,5.14s11.53.16,14.92-5.52,1.76-11.12-1.61-16C283.58,10.64,276.43,5.76,265.69,9c6.53-7.67,18.75-8.44,26.65-2.12,14.07,11.25,16.6,30,5.86,44.64C288.13,65.26,274,73.21,258.08,78c-27,8.14-53.54,7.14-79.3-4.91A67.34,67.34,0,0,1,152.6,51.33Z"/></g></g></svg>