<svg xmlns="http://www.w3.org/2000/svg" width="95" height="31" viewBox="0 0 95 31">
  <defs>
    <style>
      .cls-1 {
        fill: #fff;
      }

      .cls-1, .cls-2 {
        fill-rule: evenodd;
      }

      .cls-2 {
        fill: #ff523c;
      }
    </style>
  </defs>
  <g id="TT-logo" transform="translate(-30 -20)">
    <path id="Path_6647" data-name="Path 6647" class="cls-1" d="M43.645,21H45.22a5.486,5.486,0,0,0,.9-.091,1.977,1.977,0,0,0,.72-.273,1.737,1.737,0,0,0,.495-.5,1.559,1.559,0,0,0,0-1.454,1.737,1.737,0,0,0-.495-.5,1.517,1.517,0,0,0-.675-.273,4.937,4.937,0,0,0-.855-.091H43.645Zm0,5.544H42.3V16.679h3.1a6.8,6.8,0,0,1,1.35.136,3.374,3.374,0,0,1,1.08.454,2.63,2.63,0,0,1,.765.818,2.791,2.791,0,0,1,.27,1.272,2.413,2.413,0,0,1-.675,1.772A3.084,3.084,0,0,1,46.48,22l2.7,4.5H47.515L45.04,22.132H43.645Zm-8.009-1.227H40.5v1.227H34.331V16.679h5.939v1.227H35.636V20.86h4.41v1.182H35.681v3.272ZM26.457,21h0l4.23-4.317h1.845l-4.59,4.5L32.8,26.5h-1.89l-4.455-5.09h-.045V26.5h-1.3V16.679h1.3Zm-2.61,4.226a4.109,4.109,0,0,1-1.575,1.318,5.042,5.042,0,0,1-2.295.5,5.709,5.709,0,0,1-2.16-.409,5.527,5.527,0,0,1-1.71-1.091,4.788,4.788,0,0,1-1.125-1.682,5.835,5.835,0,0,1,0-4.272,4.788,4.788,0,0,1,1.125-1.682,5.527,5.527,0,0,1,1.71-1.091,5.686,5.686,0,0,1,2.16-.364,7.955,7.955,0,0,1,1.035.091,4.511,4.511,0,0,1,1.035.318,5.747,5.747,0,0,1,.9.5,2.424,2.424,0,0,1,.675.682l-1.125.863a2.792,2.792,0,0,0-1.035-.863,3.235,3.235,0,0,0-1.485-.318,3.823,3.823,0,0,0-1.62.318,3.735,3.735,0,0,0-1.215.863,3.693,3.693,0,0,0-.765,1.272,4.659,4.659,0,0,0-.27,1.545,4.535,4.535,0,0,0,.27,1.591,3.693,3.693,0,0,0,.765,1.272,3.312,3.312,0,0,0,1.215.863,3.808,3.808,0,0,0,3.15-.045,3.537,3.537,0,0,0,1.17-1ZM11.294,26.541h1.53V16.679h-1.53Zm-4.455,0H5.444V17.906H2.295V16.679H9.989v1.227H6.839ZM65.333,0V2.227h4.455V14.361H72.4V2.272h4.455V0ZM60.383,0V10.771h-.045L53.454,0h-3.51V14.361H52.6V3.272h.045l7.019,11.134h3.33V0ZM37.661,0V14.361H47.65V12.089H40.271V8.044H46.93V5.908H40.271V2.272H47.29V0ZM26.907,0V14.361h9.224V12.089H29.607V0ZM16.558,0,9.989,14.406H13l1.35-3.272h6.524l1.395,3.272h3.06L18.853,0Zm1.08,3.09,2.34,5.863H15.253ZM0,0V2.227H4.455V14.361h2.61V2.272h4.455V0Z" transform="translate(30 20)"/>
    <path id="Path_6648" data-name="Path 6648" class="cls-2" d="M164,25.384V30.2L174.754,21.6,185.508,30.2V25.2l-10.754-8.5Z" transform="translate(-60.508 10.931)"/>
    <path id="Path_6649" data-name="Path 6649" class="cls-2" d="M123.554,46.994,112.8,38.4v4.949l10.754,8.5,10.754-8.684V38.4Z" transform="translate(-32.251 -0.854)"/>
  </g>
</svg>
